<?xml version="1.0" standalone="no"?>
<!DOCTYPE svg PUBLIC "-//W3C//DTD SVG 1.1//EN" "http://www.w3.org/Graphics/SVG/1.1/DTD/svg11.dtd">
<svg t="1595756861234" class="icon" viewBox="0 0 1024 1024" version="1.1" xmlns="http://www.w3.org/2000/svg" p-id="4151" xmlns:xlink="http://www.w3.org/1999/xlink" width="200" height="200">
<defs><style type="text/css"></style></defs>
<path d="M198.602105 916.210526H512c223.232 0 404.210526-180.978526 404.210526-404.210526 0-223.232-180.978526-404.210526-404.210526-404.210526-223.232 0-404.210526 180.978526-404.210526 404.210526 0 54.945684 26.677895 138.024421 81.893052 245.76l8.892632 17.354105V916.210526zM512 997.052632H117.76v-202.455579C57.182316 676.513684 26.947368 582.332632 26.947368 512 26.947368 244.116211 244.116211 26.947368 512 26.947368s485.052632 217.168842 485.052632 485.052632-217.168842 485.052632-485.052632 485.052632z m151.093895-500.84379a53.894737 53.894737 0 0 0-76.234106-76.207158l-85.746526 85.746527-85.746526-85.746527a53.894737 53.894737 0 0 0-76.207158 76.207158l161.953684 161.953684 161.953684-161.953684z m-161.953684-104.798316l28.56421-28.56421a134.736842 134.736842 0 0 1 190.517895 190.517895l-219.082105 219.136-219.162948-219.109053a134.736842 134.736842 0 1 1 190.57179-190.57179l28.56421 28.591158z" fill="#333333" p-id="4152"></path></svg>