<?xml version="1.0" encoding="utf-8"?>
<!-- Generator: Adobe Illustrator 23.0.2, SVG Export Plug-In . SVG Version: 6.00 Build 0)  -->
<svg version="1.1" id="Layer_1" xmlns="http://www.w3.org/2000/svg" xmlns:xlink="http://www.w3.org/1999/xlink" x="0px" y="0px"
	 viewBox="0 0 1607.4 900" style="enable-background:new 0 0 1607.4 1276.3;" xml:space="preserve">
<style type="text/css">
	.st0{fill:#3CC68A;}
	.st1{fill:#595959;}
	.st2{fill:#424242;}
	.st3{fill:#63DAA4;}
	.st4{fill:#FFFFFF;}
	.st5{fill:#EAEAEA;}
	.st6{fill:#D8D8D8;}
	.st7{fill:#63DBA4;}
	.st8{fill:#79F2B8;}
	.st9{fill:#F4F4F4;}
</style>
<g>
	<path d="M647.9,727v34.1H522.6v-156H645v34.1h-78.7v26.3h69.3v33h-69.3V727H647.9z"/>
	<path d="M780.7,719.6h-24.1v41.5h-44.1v-156h71.3c14.1,0,26.4,2.3,36.8,7c10.4,4.7,18.4,11.4,24.1,20.1c5.6,8.7,8.5,18.9,8.5,30.6
		c0,11.3-2.6,21.1-7.9,29.5c-5.3,8.4-12.8,15-22.6,19.7l33.7,49H809L780.7,719.6z M801.7,645.8c-4.6-4-11.4-6-20.5-6h-24.5v45.7
		h24.5c9.1,0,15.9-2,20.5-5.9c4.6-3.9,6.9-9.5,6.9-16.8C808.6,655.5,806.3,649.9,801.7,645.8z"/>
	<path d="M1075.8,605.1l-66.9,156h-43.5l-66.6-156h47.7l42.3,101.6l43.2-101.6H1075.8z"/>
	<path class="st0" d="M1157.3,753.7c-13.2-7-23.5-16.6-31-29c-7.5-12.3-11.3-26.2-11.3-41.7c0-15.5,3.8-29.3,11.3-41.7
		c7.5-12.3,17.8-22,31-29c13.2-7,28-10.5,44.5-10.5c16.5,0,31.3,3.5,44.5,10.5c13.2,7,23.5,16.6,31,29c7.5,12.3,11.3,26.2,11.3,41.7
		c0,15.5-3.8,29.3-11.3,41.7c-7.5,12.3-17.8,22-31,29c-13.2,7-28,10.5-44.5,10.5C1185.2,764.2,1170.4,760.7,1157.3,753.7z
		 M1223.1,722.1c6.4-3.7,11.4-8.9,15.2-15.7c3.7-6.8,5.6-14.5,5.6-23.3c0-8.8-1.9-16.5-5.6-23.3c-3.7-6.8-8.8-12-15.2-15.7
		c-6.4-3.7-13.5-5.6-21.4-5.6c-7.9,0-15,1.9-21.4,5.6c-6.4,3.7-11.4,9-15.2,15.7c-3.7,6.8-5.6,14.5-5.6,23.3
		c0,8.8,1.9,16.5,5.6,23.3c3.7,6.8,8.8,12,15.2,15.7c6.4,3.7,13.5,5.6,21.4,5.6C1209.6,727.6,1216.7,725.8,1223.1,722.1z"/>
	<path d="M1369.8,759.5c-11.9-3.1-21.5-7.3-29-12.5l14.5-32.5c7,4.6,15.1,8.3,24.3,11.1c9.2,2.8,18.3,4.2,27.2,4.2
		c16.9,0,25.4-4.2,25.4-12.7c0-4.5-2.4-7.8-7.2-9.9c-4.8-2.1-12.6-4.4-23.3-6.8c-11.7-2.5-21.5-5.2-29.4-8.1
		c-7.9-2.9-14.6-7.5-20.3-13.9c-5.6-6.4-8.5-15-8.5-25.9c0-9.5,2.6-18.1,7.8-25.7c5.2-7.7,13-13.7,23.3-18.2c10.3-4.5,23-6.7,38-6.7
		c10.3,0,20.4,1.2,30.3,3.5c10,2.3,18.7,5.7,26.3,10.1l-13.6,32.8c-14.9-8-29.3-12-43.2-12c-8.8,0-15.2,1.3-19.2,3.9
		c-4,2.6-6,6-6,10.1s2.4,7.3,7.1,9.4c4.8,2.1,12.4,4.2,23,6.5c11.9,2.5,21.7,5.2,29.5,8.1c7.8,2.9,14.6,7.5,20.3,13.8
		c5.7,6.3,8.6,14.9,8.6,25.7c0,9.4-2.6,17.8-7.8,25.4c-5.2,7.6-13,13.6-23.4,18.2c-10.4,4.5-23,6.8-37.9,6.8
		C1393.9,764.2,1381.7,762.6,1369.8,759.5z"/>
	<g>
		<polygon class="st2" points="138.6,501 138.6,553 138.6,604.9 138.6,656.9 190.6,656.9 190.6,604.9 190.6,553 190.6,501 		"/>
		<polygon class="st2" points="396.2,604.9 396.2,656.9 396.2,708.9 396.2,760.9 448.2,760.9 448.2,708.9 448.2,656.9 448.2,604.9 
					"/>
		<polygon class="st2" points="292.3,501 292.3,553 292.3,602.7 344.3,654.7 344.3,604.9 344.3,553 		"/>
		<polygon class="st2" points="242.6,607.2 242.6,656.9 242.6,708.9 294.5,760.9 294.5,708.9 294.5,659.2 		"/>
		<polygon points="292.3,501 344.3,501 448.2,604.9 396.2,604.9 		"/>
		<polygon points="138.6,656.9 190.6,656.9 294.5,760.9 242.6,760.9 		"/>
		<polygon class="st0" points="344.3,553 344.3,604.9 344.3,654 190.6,501 190.6,553 190.6,556.2 190.6,604.9 190.6,656.9 
			242.6,708.9 242.6,656.9 242.6,607.9 396.2,760.9 396.2,708.9 396.2,705.7 396.2,656.9 396.2,604.9 		"/>
	</g>
</g>
</svg>
