<svg xmlns="http://www.w3.org/2000/svg" id="mainsvg" width="799.7526367187501" height="427.34140625000003" viewBox="-58.33203125 -10 727.0478515625 388.4921875"><defs><marker id="arrow" viewBox="0 0 10 10" refX="10" refY="5" markerWidth="5" markerHeight="5" orient="auto-start-reverse" fill="black"><path d="M 0 0 L 10 5 L 0 10 z"/></marker><filter id="shadowOLD" x="-50%" y="-50%" width="250%" height="250%"><feDropShadow flood-color="black" flood-opacity="0.3" dx="1" dy="1" stdDeviation="2"> </feDropShadow></filter><filter id="shadow-path" filterUnits="userSpaceOnUse" x="-58.33203125" y="-10" width="727.0478515625px" height="388.4921875px"><feDropShadow flood-color="black" flood-opacity="0.1" dx="1" dy="1" stdDeviation="1"> </feDropShadow></filter><filter id="shadow" filterUnits="userSpaceOnUse" x="-58.33203125" y="-10" width="827.0478515625px" height="488.4921875px"><feDropShadow flood-color="black" flood-opacity="0.1" dx="1" dy="1" stdDeviation="1"> </feDropShadow></filter></defs><rect x="-58.33203125" y="-10" width="727.0478515625" height="388.4921875" fill="#fff"/><g transform="translate(0, 0)"><rect width="66.96875" height="34" stroke="black" fill="white" stroke-width="2" transform="translate(0, 0)" rx="3"/><text fill="black" font-size="16" font-weight="normal" transform="translate(8, 8)" alignment-baseline="middle" font-family="Arial"><tspan x="0" dy="16" font-family="Arial" font-size="16" font-weight="normal">START</tspan></text></g><g transform="translate(-48.33203125, 62)"><rect width="163.6328125" height="34" stroke="black" fill="white" stroke-width="2" transform="translate(0, 0)" rx="3"/><text fill="black" font-size="16" font-weight="normal" transform="translate(8, 8)" alignment-baseline="middle" font-family="Arial"><tspan x="0" dy="16" font-family="Arial" font-size="16" font-weight="normal">receive a transaction</tspan></text></g><g transform="translate(-45.76171875, 124)"><path d="M 79.24609375,0 L 158.4921875 79.24609375 L 79.24609375 158.4921875 L 0 79.24609375 Z" fill="white" stroke="black" stroke-dasharray="none" stroke-width="2"/><g transform="translate(17, 62.24609375)"><rect width="124.4921875" height="34" stroke="black" fill="none" stroke-width="0" transform="translate(0, 0)" rx="2"/><text fill="black" font-size="16" font-weight="normal" transform="translate(8, 8)" alignment-baseline="middle" font-family="Arial"><tspan x="0" dy="16" font-family="Arial" font-size="16" font-weight="normal">verify signature</tspan></text></g></g><g transform="translate(159.4287109375, 152.4609375)"><path d="M 50.78515625,0 L 101.5703125 50.78515625 L 50.78515625 101.5703125 L 0 50.78515625 Z" fill="white" stroke="black" stroke-dasharray="none" stroke-width="2"/><g transform="translate(17, 33.78515625)"><rect width="67.5703125" height="34" stroke="black" fill="none" stroke-width="0" transform="translate(0, 0)" rx="2"/><text fill="black" font-size="16" font-weight="normal" transform="translate(8, 8)" alignment-baseline="middle" font-family="Arial"><tspan x="0" dy="16" font-family="Arial" font-size="16" font-weight="normal">verify 1</tspan></text></g></g><g transform="translate(307.697265625, 152.4609375)"><path d="M 50.78515625,0 L 101.5703125 50.78515625 L 50.78515625 101.5703125 L 0 50.78515625 Z" fill="white" stroke="black" stroke-dasharray="none" stroke-width="2"/><g transform="translate(17, 33.78515625)"><rect width="67.5703125" height="34" stroke="black" fill="none" stroke-width="0" transform="translate(0, 0)" rx="2"/><text fill="black" font-size="16" font-weight="normal" transform="translate(8, 8)" alignment-baseline="middle" font-family="Arial"><tspan x="0" dy="16" font-family="Arial" font-size="16" font-weight="normal">verify 2</tspan></text></g></g><g transform="translate(455.9658203125, 186.24609375)"><rect width="202.75" height="34" stroke="black" fill="white" stroke-width="2" transform="translate(0, 0)" rx="3"/><text fill="black" font-size="16" font-weight="normal" transform="translate(8, 8)" alignment-baseline="middle" font-family="Arial"><tspan x="0" dy="16" font-family="Arial" font-size="16" font-weight="normal">check transaction success</tspan></text></g><g transform="translate(266.880859375, 334.4921875)"><rect width="183.203125" height="34" stroke="black" fill="white" stroke-width="2" transform="translate(0, 0)" rx="3"/><text fill="black" font-size="16" font-weight="normal" transform="translate(8, 8)" alignment-baseline="middle" font-family="Arial"><tspan x="0" dy="16" font-family="Arial" font-size="16" font-weight="normal">check transaction failed</tspan></text></g><path d="M 33.484375,34 L 33.484375 48 L 33.484375 62" fill="none" stroke="black" stroke-dasharray="none" stroke-width="2" marker-end="url(#arrow)"/><path d="M 33.484375,96 L 33.484375 110 L 33.484375 124" fill="none" stroke="black" stroke-dasharray="none" stroke-width="2" marker-end="url(#arrow)"/><path d="M 112.73046875,203.24609375 L 126.73046875 203.24609375 L 159.4287109375 203.24609375" fill="none" stroke="black" stroke-dasharray="none" stroke-width="2" marker-end="url(#arrow)"/><path d="M 260.9990234375,203.24609375 L 274.9990234375 203.24609375 L 307.697265625 203.24609375" fill="none" stroke="black" stroke-dasharray="none" stroke-width="2" marker-end="url(#arrow)"/><path d="M 409.267578125,203.24609375 L 423.267578125 203.24609375 L 455.9658203125 203.24609375" fill="none" stroke="black" stroke-dasharray="none" stroke-width="2" marker-end="url(#arrow)"/><path d="M 358.482421875,254.03125 L 358.482421875 320.4921875 L 358.482421875 334.4921875" fill="none" stroke="black" stroke-dasharray="none" stroke-width="2" marker-end="url(#arrow)"/><path d="M 210.2138671875,254.03125 L 210.2138671875 320.4921875 L 358.482421875 320.4921875 L 358.482421875 334.4921875" fill="none" stroke="black" stroke-dasharray="none" stroke-width="2" marker-end="url(#arrow)"/><path d="M 33.484375,282.4921875 L 33.484375 320.4921875 L 358.482421875 320.4921875 L 358.482421875 334.4921875" fill="none" stroke="black" stroke-dasharray="none" stroke-width="2" marker-end="url(#arrow)"/><g transform="translate(114.73046875, 176.24609375)"><rect width="18.6982421875" height="24" stroke="none" fill="white" stroke-width="0" transform="translate(0, 0)" rx="2"/><text fill="black" font-size="14" font-weight="normal" transform="translate(4, 4)" alignment-baseline="middle" font-family="Arial"><tspan x="0" dy="14" font-family="Arial" font-size="14" font-weight="normal">✓</tspan></text></g><g transform="translate(35.484375, 284.4921875)"><rect width="17.337890625" height="24" stroke="none" fill="white" stroke-width="0" transform="translate(0, 0)" rx="2"/><text fill="black" font-size="14" font-weight="normal" transform="translate(4, 4)" alignment-baseline="middle" font-family="Arial"><tspan x="0" dy="14" font-family="Arial" font-size="14" font-weight="normal">X</tspan></text></g><g transform="translate(262.9990234375, 176.24609375)"><rect width="18.6982421875" height="24" stroke="none" fill="white" stroke-width="0" transform="translate(0, 0)" rx="2"/><text fill="black" font-size="14" font-weight="normal" transform="translate(4, 4)" alignment-baseline="middle" font-family="Arial"><tspan x="0" dy="14" font-family="Arial" font-size="14" font-weight="normal">✓</tspan></text></g><g transform="translate(212.2138671875, 256.03125)"><rect width="17.337890625" height="24" stroke="none" fill="white" stroke-width="0" transform="translate(0, 0)" rx="2"/><text fill="black" font-size="14" font-weight="normal" transform="translate(4, 4)" alignment-baseline="middle" font-family="Arial"><tspan x="0" dy="14" font-family="Arial" font-size="14" font-weight="normal">X</tspan></text></g><g transform="translate(411.267578125, 176.24609375)"><rect width="18.6982421875" height="24" stroke="none" fill="white" stroke-width="0" transform="translate(0, 0)" rx="2"/><text fill="black" font-size="14" font-weight="normal" transform="translate(4, 4)" alignment-baseline="middle" font-family="Arial"><tspan x="0" dy="14" font-family="Arial" font-size="14" font-weight="normal">✓</tspan></text></g><g transform="translate(360.482421875, 256.03125)"><rect width="17.337890625" height="24" stroke="none" fill="white" stroke-width="0" transform="translate(0, 0)" rx="2"/><text fill="black" font-size="14" font-weight="normal" transform="translate(4, 4)" alignment-baseline="middle" font-family="Arial"><tspan x="0" dy="14" font-family="Arial" font-size="14" font-weight="normal">X</tspan></text></g></svg>